<?xml version="1.0" ?><svg style="enable-background:new 0 0 256 256;" width="100" height="100" version="1.1" viewBox="0 0 248 248" xml:space="preserve" xmlns="http://www.w3.org/2000/svg" xmlns:xlink="http://www.w3.org/1999/xlink"><style type="text/css">
	.st0{fill:#00A388;}
	.st1{fill:#EA685E;stroke:#00886F;stroke-width:15;stroke-miterlimit:10;}
	.st2{fill:#E8E8E8;}
	.st3{fill:#FFFFFF;stroke:#00886F;stroke-width:15;stroke-miterlimit:10;}
	.st4{fill:#00886F;}
	.st5{fill:#FFFFFF;}
	.st6{fill:#CCCCCC;}
	.st7{fill:none;stroke:#00A388;stroke-width:4;stroke-miterlimit:10;}
	.st8{fill:#EA685E;}
	.st9{fill:#FFAB80;}
	.st10{fill:#2C3E50;}
	.st11{fill:#4B687F;}
	.st12{fill:none;stroke:#3E5063;stroke-width:4;stroke-miterlimit:10;}
	.st13{fill:#FFD766;}
	.st14{fill:#FFE6D3;}
	.st15{fill:#F09A79;}
	.st16{fill:#C91E01;}
	.st17{fill:#EA3B28;}
	.st18{fill:#0F627F;}
	.st19{fill:#005670;}
	.st20{filter:url(#Adobe_OpacityMaskFilter);}
	.st21{mask:url(#SVGID_2_);}
	.st22{fill:#8C623B;}
	.st23{fill:#E6E6E6;stroke:#005670;stroke-width:16;stroke-miterlimit:10;}
	.st24{opacity:0.6;}
	.st25{fill:#E6E6E6;}
	.st26{fill:#FFEC82;}
	.st27{fill:#FFCF3A;}
	.st28{filter:url(#Adobe_OpacityMaskFilter_1_);}
	.st29{mask:url(#SVGID_1_);}
	.st30{fill:#603813;}
	.st31{fill:#F2F2F2;}
	.st32{fill:#666666;}
</style><g id="Layer_2"><circle class="st2" cx="128" cy="128" r="120"/></g><g id="Layer_1"><g><g><g><g><path class="st17" d="M191.612717,184.408875c-0.036926,0.024704-0.06163,0.061768-0.086334,0.086334v5.233261       c0,0.617126-0.036911,1.222046-0.123398,1.826828c-0.160461,1.320587-0.505936,2.616623-1.024536,3.838531l-6.45517,15.280167       c-0.505936,1.172638-1.666061,1.950089-2.949753,1.950089h-11.996979c-1.345459,0-2.542648-0.851578-2.999329-2.122894       l-6.405899-17.847382c-0.691101-1.913162-2.75238-2.949905-4.702454-2.369843       c-11.577377,3.43129-25.117203,2.135254-31.880928,1.11087c-2.629135-0.39505-5.220901,0.888626-6.492226,3.221405       l-8.923691,16.24292c-0.567863,1.012039-1.629311,1.629166-2.777084,1.629166H90.674904       c-1.76506,0-3.196693-1.431793-3.196693-3.196701v-21.229233c0-1.839035-1.147934-3.443634-2.838867-4.08548       c-0.185165-0.061783-0.38269-0.123398-0.592422-0.172821c-24.598747-5.45549-37.348766-19.25444-37.348766-19.25444h-1.740353       c-1.925369,0-3.801472-0.66655-5.29488-1.900818c-1.320744-1.073807-2.209377-2.591919-2.517941-4.270493l-2.604427-13.922516       c-0.259144-1.419281,0.753033-2.75238,2.197021-2.875778l9.960579-0.802292l2.900482-5.0728       c2.875778-5.06044,6.961254-9.33094,11.898304-12.453659l2.271149-1.407227l0.049267-0.036911       c-0.48138-1.678581-1.024384-3.270828-1.592094-4.739525l-0.012356-0.049423l-3.554829-10.972603       c1.913166-0.444313,3.739849-0.703537,5.467846-0.826935c14.280342-0.987389,22.080956,7.948654,22.080956,7.948654       c0.370338-0.283859,0.740532-0.555435,1.12307-0.826935c3.888107-2.826508,7.997993-5.356735,12.268646-7.553757       c14.798782-7.603012,31.560005-11.132988,48.160912-10.170303c14.786438,0.851646,34.127365,4.875351,44.939514,15.786255       C212.064514,129.940903,209.818069,164.895279,191.612717,184.408875z"/></g></g><g><g><path class="st16" d="M156.23616,110.964127c-0.31218,0-0.629181-0.048218-0.94136-0.148254       c-2.326294-0.74369-4.770706-1.319847-7.266953-1.710373c-8.022705-1.26078-16.909622-0.703911-26.4161,1.650101       c-1.651306,0.404991-3.326721-0.599045-3.736534-2.253975c-0.409813-1.653717,0.599052-3.326721,2.253975-3.736534       c10.309227-2.552895,20.01577-3.143509,28.854485-1.756165c2.80722,0.439941,5.563828,1.088409,8.191452,1.929733       c1.623581,0.519501,2.517944,2.256386,1.998444,3.878769C158.754105,110.127625,157.54155,110.964127,156.23616,110.964127z"/></g></g><g><g><path class="st16" d="M71.506783,128.077148c-0.555504,0.185165-1.123222,0.259155-1.666222,0.259155       c-2.308067,0-4.455666-1.468704-5.196198-3.776772l-0.876274-2.715462l-1.542828-4.776436l-0.012356-0.049423       l-3.554829-10.972603c1.913166-0.444313,3.739849-0.703537,5.467846-0.826935L71.506783,128.077148z"/></g></g><g><g><circle class="st16" cx="61.946701" cy="141.353699" r="3.067888"/></g></g><g><g><path class="st17" d="M208.374084,130.467636c-0.417053,0-0.840118-0.018082-1.266815-0.054245       c-5.524033-0.46405-11.004684-4.028229-13.639557-8.867645c-0.813599-1.497017-0.261551-3.371315,1.235474-4.186119       c1.497025-0.811188,3.370117-0.261559,4.186127,1.235466c1.656128,3.04467,5.248016,5.375786,8.735046,5.668686       c1.762207,0.14946,4.257248-0.173569,6.124298-2.54808c1.885147-2.399818,2.357635-6.476257-0.168747-8.878487       c-1.023315-0.973907-2.922928-1.622375-4.436829-1.493408c-0.856995,0.068703-1.483765,0.357986-1.862244,0.856995       c-0.251907,0.333878-0.350754,0.803955-0.268784,1.292114c0.087982,0.53035,0.376068,1.004044,0.770203,1.269218       c0.103668,0.068703,0.243484,0.135002,0.390533,0.190445c0.594223-0.972702,1.712784-1.587425,2.919312-1.465691       c1.697113,0.1567,2.945847,1.658546,2.789154,3.355652c-0.163925,1.77787-1.131821,3.212212-2.65535,3.936623       c-2.235901,1.061897-5.134735,0.280838-6.883667-0.894363c-1.803177-1.210152-3.0495-3.170021-3.41713-5.37458       c-0.360382-2.155136,0.16394-4.356071,1.437973-6.036308c1.44278-1.904427,3.673859-3.069984,6.279785-3.282127       c3.28212-0.25312,6.883667,0.979935,9.189468,3.173645c4.576645,4.350052,4.912933,11.889412,0.767792,17.163956       C216.073746,128.741592,212.478241,130.467636,208.374084,130.467636z"/></g></g><g><g><g><path class="st16" d="M191.612717,184.408875c-0.036926,0.024704-0.06163,0.061768-0.086334,0.086334v5.233261        c0,0.617126-0.036911,1.222046-0.123398,1.826828c-2.258804,1.271179-5.171494,0.777588-6.887283-1.283676        L191.612717,184.408875z"/></g></g></g><g><g><g><path class="st16" d="M97.327591,186.704575c-0.629486,2.949905-3.530121,4.826019-6.479874,4.196533l-3.369507-0.72818        v-2.110535c0-1.839035-1.147934-3.443634-2.838867-4.08548L97.327591,186.704575z"/></g></g></g></g><g><g><ellipse class="st27" cx="138.552612" cy="64.875923" rx="21.498377" ry="21.498377" transform="matrix(0.994981 -0.100059 0.100059 0.994981 -5.7961 14.189032)"/></g><g><ellipse class="st26" cx="138.552612" cy="64.875923" rx="15.996336" ry="15.996336" transform="matrix(0.994981 -0.100059 0.100059 0.994981 -5.7961 14.189032)"/></g></g></g></g></svg>